<mxfile host="app.diagrams.net" agent="Mozilla/5.0 (Windows NT 10.0; Win64; x64) AppleWebKit/537.36 (KHTML, like Gecko) Chrome/130.0.0.0 Safari/537.36" version="24.8.6">
  <diagram name="Page-1" id="EccKIQLTfqac-ESluPQK">
    <mxGraphModel dx="2109" dy="686" grid="1" gridSize="10" guides="1" tooltips="1" connect="1" arrows="1" fold="1" page="1" pageScale="1" pageWidth="850" pageHeight="1100" math="0" shadow="0">
      <root>
        <mxCell id="0" />
        <mxCell id="1" parent="0" />
        <mxCell id="vYtqkde8L0sF4O3sA_XC-3" style="edgeStyle=orthogonalEdgeStyle;rounded=0;orthogonalLoop=1;jettySize=auto;html=1;entryX=0;entryY=0.5;entryDx=0;entryDy=0;" edge="1" parent="1" source="vYtqkde8L0sF4O3sA_XC-1" target="vYtqkde8L0sF4O3sA_XC-2">
          <mxGeometry relative="1" as="geometry" />
        </mxCell>
        <mxCell id="vYtqkde8L0sF4O3sA_XC-9" style="edgeStyle=orthogonalEdgeStyle;rounded=0;orthogonalLoop=1;jettySize=auto;html=1;" edge="1" parent="1" source="vYtqkde8L0sF4O3sA_XC-1" target="vYtqkde8L0sF4O3sA_XC-8">
          <mxGeometry relative="1" as="geometry" />
        </mxCell>
        <mxCell id="vYtqkde8L0sF4O3sA_XC-1" value="&lt;b&gt;cd3fe&lt;/b&gt;" style="ellipse;whiteSpace=wrap;html=1;aspect=fixed;fillColor=#dae8fc;strokeColor=#6c8ebf;" vertex="1" parent="1">
          <mxGeometry x="-120" y="80" width="80" height="80" as="geometry" />
        </mxCell>
        <mxCell id="vYtqkde8L0sF4O3sA_XC-5" style="edgeStyle=orthogonalEdgeStyle;rounded=0;orthogonalLoop=1;jettySize=auto;html=1;entryX=0;entryY=0.5;entryDx=0;entryDy=0;" edge="1" parent="1" source="vYtqkde8L0sF4O3sA_XC-2" target="vYtqkde8L0sF4O3sA_XC-4">
          <mxGeometry relative="1" as="geometry" />
        </mxCell>
        <mxCell id="vYtqkde8L0sF4O3sA_XC-2" value="&lt;b&gt;cd3fe&lt;/b&gt;" style="ellipse;whiteSpace=wrap;html=1;aspect=fixed;fillColor=#ffe6cc;strokeColor=#d79b00;" vertex="1" parent="1">
          <mxGeometry x="-40" y="200" width="80" height="80" as="geometry" />
        </mxCell>
        <mxCell id="vYtqkde8L0sF4O3sA_XC-7" style="edgeStyle=orthogonalEdgeStyle;rounded=0;orthogonalLoop=1;jettySize=auto;html=1;entryX=0;entryY=0.5;entryDx=0;entryDy=0;" edge="1" parent="1" source="vYtqkde8L0sF4O3sA_XC-4" target="vYtqkde8L0sF4O3sA_XC-6">
          <mxGeometry relative="1" as="geometry" />
        </mxCell>
        <mxCell id="vYtqkde8L0sF4O3sA_XC-4" value="&lt;b&gt;67872&lt;/b&gt;" style="ellipse;whiteSpace=wrap;html=1;aspect=fixed;fillColor=#ffe6cc;strokeColor=#d79b00;" vertex="1" parent="1">
          <mxGeometry x="90" y="200" width="80" height="80" as="geometry" />
        </mxCell>
        <mxCell id="vYtqkde8L0sF4O3sA_XC-10" style="edgeStyle=orthogonalEdgeStyle;rounded=0;orthogonalLoop=1;jettySize=auto;html=1;entryX=0.5;entryY=1;entryDx=0;entryDy=0;" edge="1" parent="1" source="vYtqkde8L0sF4O3sA_XC-6" target="vYtqkde8L0sF4O3sA_XC-8">
          <mxGeometry relative="1" as="geometry" />
        </mxCell>
        <mxCell id="vYtqkde8L0sF4O3sA_XC-6" value="&lt;b&gt;3aed&lt;/b&gt;" style="ellipse;whiteSpace=wrap;html=1;aspect=fixed;fillColor=#ffe6cc;strokeColor=#d79b00;" vertex="1" parent="1">
          <mxGeometry x="220" y="200" width="80" height="80" as="geometry" />
        </mxCell>
        <mxCell id="vYtqkde8L0sF4O3sA_XC-13" style="edgeStyle=orthogonalEdgeStyle;rounded=0;orthogonalLoop=1;jettySize=auto;html=1;entryX=0;entryY=0.5;entryDx=0;entryDy=0;" edge="1" parent="1" source="vYtqkde8L0sF4O3sA_XC-8" target="vYtqkde8L0sF4O3sA_XC-11">
          <mxGeometry relative="1" as="geometry" />
        </mxCell>
        <mxCell id="vYtqkde8L0sF4O3sA_XC-21" style="edgeStyle=orthogonalEdgeStyle;rounded=0;orthogonalLoop=1;jettySize=auto;html=1;entryX=0;entryY=0.5;entryDx=0;entryDy=0;" edge="1" parent="1" source="vYtqkde8L0sF4O3sA_XC-8" target="vYtqkde8L0sF4O3sA_XC-18">
          <mxGeometry relative="1" as="geometry" />
        </mxCell>
        <mxCell id="vYtqkde8L0sF4O3sA_XC-8" value="&lt;b&gt;62918&lt;/b&gt;" style="ellipse;whiteSpace=wrap;html=1;aspect=fixed;fillColor=#dae8fc;strokeColor=#6c8ebf;" vertex="1" parent="1">
          <mxGeometry x="220" y="80" width="80" height="80" as="geometry" />
        </mxCell>
        <mxCell id="vYtqkde8L0sF4O3sA_XC-15" style="edgeStyle=orthogonalEdgeStyle;rounded=0;orthogonalLoop=1;jettySize=auto;html=1;entryX=0;entryY=0.5;entryDx=0;entryDy=0;" edge="1" parent="1" source="vYtqkde8L0sF4O3sA_XC-11" target="vYtqkde8L0sF4O3sA_XC-14">
          <mxGeometry relative="1" as="geometry" />
        </mxCell>
        <mxCell id="vYtqkde8L0sF4O3sA_XC-11" value="&lt;b&gt;62918&lt;/b&gt;" style="ellipse;whiteSpace=wrap;html=1;aspect=fixed;fillColor=#f8cecc;strokeColor=#b85450;" vertex="1" parent="1">
          <mxGeometry x="370" y="200" width="80" height="80" as="geometry" />
        </mxCell>
        <mxCell id="vYtqkde8L0sF4O3sA_XC-17" style="edgeStyle=orthogonalEdgeStyle;rounded=0;orthogonalLoop=1;jettySize=auto;html=1;entryX=0;entryY=0.5;entryDx=0;entryDy=0;" edge="1" parent="1" source="vYtqkde8L0sF4O3sA_XC-14" target="vYtqkde8L0sF4O3sA_XC-16">
          <mxGeometry relative="1" as="geometry" />
        </mxCell>
        <mxCell id="vYtqkde8L0sF4O3sA_XC-23" style="edgeStyle=orthogonalEdgeStyle;rounded=0;orthogonalLoop=1;jettySize=auto;html=1;entryX=0.5;entryY=1;entryDx=0;entryDy=0;dashed=1;" edge="1" parent="1" source="vYtqkde8L0sF4O3sA_XC-14" target="vYtqkde8L0sF4O3sA_XC-18">
          <mxGeometry relative="1" as="geometry" />
        </mxCell>
        <mxCell id="vYtqkde8L0sF4O3sA_XC-14" value="&lt;b&gt;922b&lt;/b&gt;" style="ellipse;whiteSpace=wrap;html=1;aspect=fixed;fillColor=#f8cecc;strokeColor=#b85450;" vertex="1" parent="1">
          <mxGeometry x="500" y="200" width="80" height="80" as="geometry" />
        </mxCell>
        <mxCell id="vYtqkde8L0sF4O3sA_XC-24" style="edgeStyle=orthogonalEdgeStyle;rounded=0;orthogonalLoop=1;jettySize=auto;html=1;entryX=0.5;entryY=1;entryDx=0;entryDy=0;dashed=1;" edge="1" parent="1" source="vYtqkde8L0sF4O3sA_XC-16" target="vYtqkde8L0sF4O3sA_XC-19">
          <mxGeometry relative="1" as="geometry" />
        </mxCell>
        <mxCell id="vYtqkde8L0sF4O3sA_XC-16" value="&lt;b&gt;24ab&lt;/b&gt;" style="ellipse;whiteSpace=wrap;html=1;aspect=fixed;fillColor=#f8cecc;strokeColor=#b85450;" vertex="1" parent="1">
          <mxGeometry x="630" y="200" width="80" height="80" as="geometry" />
        </mxCell>
        <mxCell id="vYtqkde8L0sF4O3sA_XC-20" style="edgeStyle=orthogonalEdgeStyle;rounded=0;orthogonalLoop=1;jettySize=auto;html=1;entryX=0;entryY=0.5;entryDx=0;entryDy=0;" edge="1" parent="1" source="vYtqkde8L0sF4O3sA_XC-18" target="vYtqkde8L0sF4O3sA_XC-19">
          <mxGeometry relative="1" as="geometry" />
        </mxCell>
        <mxCell id="vYtqkde8L0sF4O3sA_XC-18" value="&lt;b&gt;e11b&lt;/b&gt;" style="ellipse;whiteSpace=wrap;html=1;aspect=fixed;fillColor=#dae8fc;strokeColor=#6c8ebf;" vertex="1" parent="1">
          <mxGeometry x="500" y="80" width="80" height="80" as="geometry" />
        </mxCell>
        <mxCell id="vYtqkde8L0sF4O3sA_XC-26" style="edgeStyle=orthogonalEdgeStyle;rounded=0;orthogonalLoop=1;jettySize=auto;html=1;entryX=0;entryY=0.5;entryDx=0;entryDy=0;" edge="1" parent="1" source="vYtqkde8L0sF4O3sA_XC-19" target="vYtqkde8L0sF4O3sA_XC-25">
          <mxGeometry relative="1" as="geometry" />
        </mxCell>
        <mxCell id="vYtqkde8L0sF4O3sA_XC-36" style="edgeStyle=orthogonalEdgeStyle;rounded=0;orthogonalLoop=1;jettySize=auto;html=1;entryX=0;entryY=0.5;entryDx=0;entryDy=0;" edge="1" parent="1" source="vYtqkde8L0sF4O3sA_XC-19" target="vYtqkde8L0sF4O3sA_XC-34">
          <mxGeometry relative="1" as="geometry" />
        </mxCell>
        <mxCell id="vYtqkde8L0sF4O3sA_XC-19" value="&lt;b&gt;feb5&lt;/b&gt;" style="ellipse;whiteSpace=wrap;html=1;aspect=fixed;fillColor=#dae8fc;strokeColor=#6c8ebf;" vertex="1" parent="1">
          <mxGeometry x="630" y="80" width="80" height="80" as="geometry" />
        </mxCell>
        <mxCell id="vYtqkde8L0sF4O3sA_XC-22" value="&lt;b&gt;karam-dosa&lt;/b&gt;" style="text;html=1;align=center;verticalAlign=middle;resizable=0;points=[];autosize=1;strokeColor=none;fillColor=none;" vertex="1" parent="1">
          <mxGeometry x="560" y="280" width="90" height="30" as="geometry" />
        </mxCell>
        <mxCell id="vYtqkde8L0sF4O3sA_XC-28" style="edgeStyle=orthogonalEdgeStyle;rounded=0;orthogonalLoop=1;jettySize=auto;html=1;entryX=0;entryY=0.5;entryDx=0;entryDy=0;" edge="1" parent="1" source="vYtqkde8L0sF4O3sA_XC-25" target="vYtqkde8L0sF4O3sA_XC-27">
          <mxGeometry relative="1" as="geometry" />
        </mxCell>
        <mxCell id="vYtqkde8L0sF4O3sA_XC-25" value="&lt;b&gt;15d2&lt;/b&gt;" style="ellipse;whiteSpace=wrap;html=1;aspect=fixed;fillColor=#ffe6cc;strokeColor=#d79b00;" vertex="1" parent="1">
          <mxGeometry x="770" y="200" width="80" height="80" as="geometry" />
        </mxCell>
        <mxCell id="vYtqkde8L0sF4O3sA_XC-37" style="edgeStyle=orthogonalEdgeStyle;rounded=0;orthogonalLoop=1;jettySize=auto;html=1;entryX=0.5;entryY=1;entryDx=0;entryDy=0;" edge="1" parent="1" source="vYtqkde8L0sF4O3sA_XC-27" target="vYtqkde8L0sF4O3sA_XC-34">
          <mxGeometry relative="1" as="geometry" />
        </mxCell>
        <mxCell id="vYtqkde8L0sF4O3sA_XC-27" value="&lt;b&gt;d8a5&lt;/b&gt;" style="ellipse;whiteSpace=wrap;html=1;aspect=fixed;fillColor=#ffe6cc;strokeColor=#d79b00;" vertex="1" parent="1">
          <mxGeometry x="920" y="200" width="80" height="80" as="geometry" />
        </mxCell>
        <mxCell id="vYtqkde8L0sF4O3sA_XC-32" style="edgeStyle=orthogonalEdgeStyle;rounded=0;orthogonalLoop=1;jettySize=auto;html=1;entryX=0;entryY=0.5;entryDx=0;entryDy=0;" edge="1" parent="1" source="vYtqkde8L0sF4O3sA_XC-29" target="vYtqkde8L0sF4O3sA_XC-31">
          <mxGeometry relative="1" as="geometry" />
        </mxCell>
        <mxCell id="vYtqkde8L0sF4O3sA_XC-29" value="&lt;b&gt;ad3a507&lt;/b&gt;" style="ellipse;whiteSpace=wrap;html=1;aspect=fixed;fillColor=#f8cecc;strokeColor=#b85450;" vertex="1" parent="1">
          <mxGeometry x="770" width="80" height="80" as="geometry" />
        </mxCell>
        <mxCell id="vYtqkde8L0sF4O3sA_XC-30" style="edgeStyle=orthogonalEdgeStyle;rounded=0;orthogonalLoop=1;jettySize=auto;html=1;entryX=-0.024;entryY=0.353;entryDx=0;entryDy=0;entryPerimeter=0;" edge="1" parent="1" source="vYtqkde8L0sF4O3sA_XC-19" target="vYtqkde8L0sF4O3sA_XC-29">
          <mxGeometry relative="1" as="geometry" />
        </mxCell>
        <mxCell id="vYtqkde8L0sF4O3sA_XC-31" value="&lt;b&gt;4262b&lt;/b&gt;" style="ellipse;whiteSpace=wrap;html=1;aspect=fixed;fillColor=#f8cecc;strokeColor=#b85450;" vertex="1" parent="1">
          <mxGeometry x="910" width="80" height="80" as="geometry" />
        </mxCell>
        <mxCell id="vYtqkde8L0sF4O3sA_XC-34" value="&lt;b&gt;a4741&lt;/b&gt;" style="ellipse;whiteSpace=wrap;html=1;aspect=fixed;fillColor=#dae8fc;strokeColor=#6c8ebf;" vertex="1" parent="1">
          <mxGeometry x="1020" y="80" width="80" height="80" as="geometry" />
        </mxCell>
      </root>
    </mxGraphModel>
  </diagram>
</mxfile>
